/* XPM */
static char *energi16[] = {
/* columns rows colors chars-per-pixel */
"16 16 98 2 ",
"   c #50D994",
".  c #55DA97",
"X  c #57DB98",
"o  c #5CDB9A",
"O  c #59DC9A",
"+  c #5DDC9C",
"@  c #5DDD9C",
"#  c #5FDC9D",
"$  c #5FDD9D",
"%  c #62DA9B",
"&  c #62DB9B",
"*  c #60DC9D",
"=  c #60DD9E",
"-  c #6BDDA1",
";  c #69E0A3",
":  c #6CE1A5",
">  c #71E2A8",
",  c #77E0A8",
"<  c #75E3AB",
"1  c #76E2AB",
"2  c #77E2AB",
"3  c #76E3AB",
"4  c #77E4AC",
"5  c #79E0AB",
"6  c #78E2AC",
"7  c #78E3AC",
"8  c #7CE2AC",
"9  c #7CE3AD",
"0  c #7EE3AD",
"q  c #7FE2AF",
"w  c #78E4AC",
"e  c #7AE4AD",
"r  c #7AE5AE",
"t  c #7DE4AE",
"y  c #7CE5AF",
"u  c #82DEAE",
"i  c #8ADEAD",
"p  c #8ADFB3",
"a  c #97DFB1",
"s  c #81E3AE",
"d  c #83E5B0",
"f  c #83E6B1",
"g  c #83E6B2",
"h  c #82E7B3",
"j  c #85E5B3",
"k  c #86E4B3",
"l  c #89E5B4",
"z  c #8AE7B7",
"x  c #88E8B5",
"c  c #88E9B6",
"v  c #8CE8B8",
"b  c #8FE9B9",
"n  c #8CEAB9",
"m  c #8DEAB9",
"M  c #8EE9BA",
"N  c #8EEABA",
"B  c #9AE5B7",
"V  c #9DE5BE",
"C  c #90E9BB",
"Z  c #96E8BC",
"A  c #97EABF",
"S  c #9CE9C0",
"D  c #99EDC0",
"F  c #9CECC2",
"G  c #9DECC3",
"H  c #9DEEC3",
"J  c #AAE6C1",
"K  c #A5E9C1",
"L  c #A2EBC4",
"P  c #A1EEC4",
"I  c #ADE8C1",
"U  c #A6EEC8",
"Y  c #AAEDC8",
"T  c #ABEEC9",
"R  c #B2E9C4",
"E  c #B2EDC9",
"W  c #B2EECA",
"Q  c #BCEECD",
"!  c #B0F2CE",
"~  c #B1F2CF",
"^  c #B3F4D0",
"/  c #B8F2D2",
"(  c #B9F4D3",
")  c #BCF4D4",
"_  c #C5EDD5",
"`  c #C1F1D4",
"'  c #C0F5D7",
"]  c #C6F3D9",
"[  c #C4F5D9",
"{  c #C5F5D9",
"}  c #C6F6DA",
"|  c #CBF1DA",
" . c #C8F6DC",
".. c #CCF4DC",
"X. c #D5F5DE",
"o. c #D6F7E3",
"O. c #E5F9EC",
"+. c None",
/* pixels */
"+.+.+.+.+.+.+.+.+.+.+.+.+.+.+.+.",
"+.+.+.+.+.+.+.q u +.+.+.+.+.+.+.",
"+.+.+.+.+.+.j . * V +.+.+.+.+.+.",
"+.+.+.+.+.A =   @ b | +.+.+.+.+.",
"+.+.+.+.G 3 O & 0 c ' _ +.+.+.+.",
"+.+.+.U r > - I Y h ^ ` +.+.+.+.",
"+.+.) m < s R L w y P X.+.+.+.+.",
"+.G H n d Q S $ < f W O.} j p +.",
"+.C D N B +.1 X t E o. .[ m 5 +.",
"+.+.~ N 8 J +.9 K ] x ( { / +.+.",
"+.+.+.F 4 , a +.+.g : ! ..+.+.+.",
"+.+.+.+.M > % i v 3 ; T +.+.+.+.",
"+.+.+.+.+.z # o 7 e k +.+.+.+.+.",
"+.+.+.+.+.+.2 + 3 Z +.+.+.+.+.+.",
"+.+.+.+.+.+.+.6 l +.+.+.+.+.+.+.",
"+.+.+.+.+.+.+.+.+.+.+.+.+.+.+.+."
};
