/* XPM */
static char *energi64[] = {
/* columns rows colors chars-per-pixel */
"64 64 119 2 ",
"   c #4CD48F",
".  c #4AD790",
"X  c #4FD993",
"o  c #53D592",
"O  c #59D796",
"+  c #52D995",
"@  c #57DB98",
"#  c #5BDC9B",
"$  c #79C996",
"%  c #7DCD9B",
"&  c #61D296",
"*  c #64D599",
"=  c #62DD9E",
"-  c #6CD89F",
";  c #75DB9F",
":  c #65DFA1",
">  c #6ADFA3",
",  c #75DDA6",
"<  c #7ADCA3",
"1  c #79DEA9",
"2  c #67E0A2",
"3  c #6BE1A5",
"4  c #70E2A7",
"5  c #74E3AA",
"6  c #7AE4AD",
"7  c #7EE6B0",
"8  c #81CE9E",
"9  c #84CFA0",
"0  c #82D1A4",
"q  c #88D3A5",
"w  c #83D3A9",
"e  c #8CD6AA",
"r  c #84DFAA",
"t  c #91D6AC",
"y  c #92D7B1",
"u  c #9CD5B0",
"i  c #9DD8B4",
"p  c #A2D7B6",
"a  c #ADDFB3",
"s  c #AED7BD",
"d  c #A6DCB9",
"f  c #ACDABC",
"g  c #B1DDB2",
"h  c #B0DBBF",
"j  c #81E2AD",
"k  c #8CE2AE",
"l  c #83E6B3",
"z  c #8BE5B4",
"x  c #86E8B5",
"c  c #8AE8B7",
"v  c #8DE9B9",
"b  c #93E4B2",
"n  c #9BE4B4",
"m  c #90E7B8",
"M  c #9CE6BC",
"N  c #93EBBC",
"B  c #9CEABD",
"V  c #A0E6B7",
"C  c #AFE3B5",
"Z  c #A3EABD",
"A  c #B2E2B6",
"S  c #B4E4B9",
"D  c #B8E8BD",
"F  c #B5DDC2",
"G  c #BCDDC6",
"H  c #9CEEC2",
"J  c #A3EDC4",
"K  c #AAEDC5",
"L  c #AFE7C8",
"P  c #AAEFCA",
"I  c #B6E7C3",
"U  c #BAE1C1",
"Y  c #BCEBC5",
"T  c #BEE0C8",
"R  c #B4ECCD",
"E  c #BCECCD",
"W  c #A3F0C6",
"Q  c #A6F1C9",
"!  c #ABF2CB",
"~  c #B3F2CD",
"^  c #B7EFD1",
"/  c #BAEED1",
"(  c #AFF1D0",
")  c #B5F4D1",
"_  c #BCF2D4",
"`  c #BFF8D7",
"'  c #BFF8D8",
"]  c #C2EAC5",
"[  c #C8EBC7",
"{  c #C4EDCD",
"}  c #CBEDCB",
"|  c #D1EECF",
" . c #CEF0CD",
".. c #C3EED2",
"X. c #CDEED3",
"o. c #D1EDD1",
"O. c #C3F3D6",
"+. c #CEF1D7",
"@. c #C5F4D9",
"#. c #CAF6DC",
"$. c #C4F9DB",
"%. c #CCF9DF",
"&. c #D4F3D4",
"*. c #D3F3DB",
"=. c #DAF4DB",
"-. c #D0F8DF",
";. c #CEF7E2",
":. c #CEFAE0",
">. c #D7F7E1",
",. c #DCF5E1",
"<. c #D2FBE2",
"1. c #DAF9E3",
"2. c #DEF9E9",
"3. c #E2F9EA",
"4. c #EEFBEF",
"5. c #EEFBF0",
"6. c #F1FCF2",
"7. c #FAFFF9",
"8. c None",
/* pixels */
"8.8.8.8.8.8.8.8.8.8.8.8.8.8.8.8.8.8.8.8.8.8.8.8.8.8.8.8.8.8.8.8.8.8.8.8.8.8.8.8.8.8.8.8.8.8.8.8.8.8.8.8.8.8.8.8.8.8.8.8.8.8.8.8.",
"8.8.8.8.8.8.8.8.8.8.8.8.8.8.8.8.8.8.8.8.8.8.8.8.8.8.8.8.8.8.8.8.8.8.8.8.8.8.8.8.8.8.8.8.8.8.8.8.8.8.8.8.8.8.8.8.8.8.8.8.8.8.8.8.",
"8.8.8.8.8.8.8.8.8.8.8.8.8.8.8.8.8.8.8.8.8.8.8.8.8.8.8.8.8.8.8.8.8.8.8.8.8.8.8.8.8.8.8.8.8.8.8.8.8.8.8.8.8.8.8.8.8.8.8.8.8.8.8.8.",
"8.8.8.8.8.8.8.8.8.8.8.8.8.8.8.8.8.8.8.8.8.8.8.8.8.8.8.8.8.8.8.8.8.8.8.8.8.8.8.8.8.8.8.8.8.8.8.8.8.8.8.8.8.8.8.8.8.8.8.8.8.8.8.8.",
"8.8.8.8.8.8.8.8.8.8.8.8.8.8.8.8.8.8.8.8.8.8.8.8.8.8.8.8.8.8.8.M d 8.8.8.8.8.8.8.8.8.8.8.8.8.8.8.8.8.8.8.8.8.8.8.8.8.8.8.8.8.8.8.",
"8.8.8.8.8.8.8.8.8.8.8.8.8.8.8.8.8.8.8.8.8.8.8.8.8.8.8.8.8.8.M # & u 8.8.8.8.8.8.8.8.8.8.8.8.8.8.8.8.8.8.8.8.8.8.8.8.8.8.8.8.8.8.",
"8.8.8.8.8.8.8.8.8.8.8.8.8.8.8.8.8.8.8.8.8.8.8.8.8.8.8.8.8.B # + + * p 8.8.8.8.8.8.8.8.8.8.8.8.8.8.8.8.8.8.8.8.8.8.8.8.8.8.8.8.8.",
"8.8.8.8.8.8.8.8.8.8.8.8.8.8.8.8.8.8.8.8.8.8.8.8.8.8.8.8.H # + + + # * i 8.8.8.8.8.8.8.8.8.8.8.8.8.8.8.8.8.8.8.8.8.8.8.8.8.8.8.8.",
"8.8.8.8.8.8.8.8.8.8.8.8.8.8.8.8.8.8.8.8.8.8.8.8.8.8.8.H # + + + + @ # > p 8.8.8.8.8.8.8.8.8.8.8.8.8.8.8.8.8.8.8.8.8.8.8.8.8.8.8.",
"8.8.8.8.8.8.8.8.8.8.8.8.8.8.8.8.8.8.8.8.8.8.8.8.8.8.J = + + X X @ # = 3 , p 8.8.8.8.8.8.8.8.8.8.8.8.8.8.8.8.8.8.8.8.8.8.8.8.8.8.",
"8.8.8.8.8.8.8.8.8.8.8.8.8.8.8.8.8.8.8.8.8.8.8.8.8.K : + + + X o + @ # 3 5 z f 8.8.8.8.8.8.8.8.8.8.8.8.8.8.8.8.8.8.8.8.8.8.8.8.8.",
"8.8.8.8.8.8.8.8.8.8.8.8.8.8.8.8.8.8.8.8.8.8.8.8.K 3 @ + + X X X @ # # : 5 x M F 8.8.8.8.8.8.8.8.8.8.8.8.8.8.8.8.8.8.8.8.8.8.8.8.",
"8.8.8.8.8.8.8.8.8.8.8.8.8.8.8.8.8.8.8.8.8.8.8.~ 5 = # + + X X + + # = 2 5 l H ! T 8.8.8.8.8.8.8.8.8.8.8.8.8.8.8.8.8.8.8.8.8.8.8.",
"8.8.8.8.8.8.8.8.8.8.8.8.8.8.8.8.8.8.8.8.8.8.~ 5 : # @ + + X X + + # # 2 5 l H ) #.G 8.8.8.8.8.8.8.8.8.8.8.8.8.8.8.8.8.8.8.8.8.8.",
"8.8.8.8.8.8.8.8.8.8.8.8.8.8.8.8.8.8.8.8.8._ 7 3 2 = @ + + X + + @ # = 2 3 7 N ! %.+.G 8.8.8.8.8.8.8.8.8.8.8.8.8.8.8.8.8.8.8.8.8.",
"8.8.8.8.8.8.8.8.8.8.8.8.8.8.8.8.8.8.8.8.) l 5 4 2 # @ + X X + + @ # = 2 5 7 v Q $.<...F 8.8.8.8.8.8.8.8.8.8.8.8.8.8.8.8.8.8.8.8.",
"8.8.8.8.8.8.8.8.8.8.8.8.8.8.8.8.8.8.8.) x 6 5 3 2 # + + X X + + @ # 2 2 4 7 v W ` <.;./ F 8.8.8.8.8.8.8.8.8.8.8.8.8.8.8.8.8.8.8.",
"8.8.8.8.8.8.8.8.8.8.8.8.8.8.8.8.8.8.) l 6 5 5 3 2 # @ + X X + + 3 = 2 3 5 7 x H ) ;.<.#.R F 8.8.8.8.8.8.8.8.8.8.8.8.8.8.8.8.8.8.",
"8.8.8.8.8.8.8.8.8.8.8.8.8.8.8.8.8.@.7 5 6 6 5 3 2 # @ + X X + ; S H 4 3 5 6 x H ! %.<.#.@.L s 8.8.8.8.8.8.8.8.8.8.8.8.8.8.8.8.8.",
"8.8.8.8.8.8.8.8.8.8.8.8.8.8.8.8.#.l 5 5 6 6 5 4 2 # + + X X , C +.5.W 5 5 7 x N W $.<.%.@.^ L s 8.8.8.8.8.8.8.8.8.8.8.8.8.8.8.8.",
"8.8.8.8.8.8.8.8.8.8.8.8.8.8.8.:.x 5 5 5 5 5 5 3 2 # + X + ; C | 8.8.6.J 6 7 7 v H _ <.:.#.^ ^ ^ F 8.8.8.8.8.8.8.8.8.8.8.8.8.8.8.",
"8.8.8.8.8.8.8.8.8.8.8.8.8.8.;.x 5 5 5 5 6 6 5 3 = # @ + < A } 8.8.8.3.N 5 7 l x H ! :.:.#./ R _ O.U 8.8.8.8.8.8.8.8.8.8.8.8.8.8.",
"8.8.8.8.8.8.8.8.8.8.8.8.8.<.H 5 5 5 5 6 7 5 4 3 = # @ < A } 8.8.8.3.B 5 7 7 7 x v ! $.<.#.O.^ / Y } 8.8.8.8.8.8.8.8.8.8.8.8.8.8.",
"8.8.8.8.8.8.8.8.8.8.8.8.%.H 7 6 5 5 5 6 5 5 4 3 2 # < A } 8.8.8.3.N 5 5 7 7 7 l v H ' <.%.O.^ I } 8.8.8.8.8.8.8.8.8.8.8.8.8.8.8.",
"8.8.8.8.8.8.8.8.8.8.8.<.W v x 6 5 5 5 6 6 6 4 3 : r A } 8.8.8.3.m 3 5 6 7 7 7 7 l B ) <.:.@.Y } 8.8.8.8.8.8.8.8.8.8.8.8.8.8.8.8.",
"8.8.8.8.8.8.8.8.8.8.>.! H v x 6 5 5 5 6 6 5 3 > r S } 8.8.8.3.c 2 3 5 7 7 l 6 6 l N ) :.%.{ &.8.8.8.8.8.E 8.8.8.8.8.8.8.8.8.8.8.",
"8.8.8.8.8.8.8.8.8.>.~ W H v x 6 5 5 5 6 6 5 , z S } 8.8.8.3.c # 2 3 6 7 l 7 6 5 6 v W #.{ } 8.8.8.8.8.O.m e 8.8.8.8.8.8.8.8.8.8.",
"8.8.8.8.8.8.8.8.%.Q ! Q H v x 6 5 5 5 6 6 5 z S } 8.8.8.3.l # # 2 3 6 7 x l 7 5 6 x J E +.8.8.8.8.8.1.) v 1 0 8.8.8.8.8.8.8.8.8.",
"8.8.8.8.8.8.8.#.N H ! Q H v x 6 6 5 5 7 6 B ] } 8.8.8.3.x + @ # 2 3 6 l x l 5 5 5 l K =.8.8.8.8.8.>.<._ N 7 = 0 8.8.8.8.8.8.8.8.",
"8.8.8.8.8.8.%.c l H ! Q H N x 6 5 5 5 5 M 1.6.8.8.8.3.z + + @ = 3 5 7 x x 7 5 5 5 Z =.8.8.8.8.8.-.#.<.' H 7 2 @ w 8.8.8.8.8.8.8.",
"8.8.8.8.8.#.x 5 l B ! Q H N x 7 6 5 6 z D &.8.8.8.3.c + X + + # 2 5 7 x x l 5 5 b &.8.8.8.8.8.#.) @.<.$.W l 3 @ + w 8.8.8.8.8.8.",
"8.8.8.8.@.l 3 5 x H ! Q H N x 7 5 5 l C [ 8.8.8.8.c O + X + @ = 2 5 7 x c 7 6 b } 8.8.8.8.8.>.O.^ $.<.%.! x 5 # X   w 8.8.8.8.8.",
"8.8.8.8.N 4 4 5 7 H ! W H v l 7 5 b Y +.8.8.8.8.N # @ X X + @ = 3 5 7 v x l b } 8.8.8.8.8.1.%._ ) O.;.;.! v 5 = X . . y 8.8.8.8.",
"8.8.8.8.) 7 3 5 x H ! ! H H x 7 < C  .6.8.8.8.8.H = X X X X @ = 3 5 l c c n } 8.8.8.8.8.1.<.%.@.^ O.%.<.) N 6 = @ . = ^ 8.8.8.8.",
"8.8.8.8.8.) 6 5 7 H ! ! H H x 7 5 e [ =.8.8.8.8.8.N # X X X @ = 3 5 x v V } 8.8.8.8.8.$._ <.:.@.^ _ %.<.) H 6 2 X : / 8.8.8.8.8.",
"8.8.8.8.8.8.) 7 7 H ! ! H v x 7 5 5 q g } 8.8.8.8.8.v @ X @ @ = 3 5 l n } 8.8.8.8.8.~ N ! :.<.$._ _ $.<.$.H l 3 3 _ 8.8.8.8.8.8.",
"8.8.8.8.8.8.8.) x H ! Q W N x 7 5 5 5 9 g =.8.8.8.8.8.N @ + @ = 3 5 n } 8.8.8.8.8.! 7 c Q %.;.%./ _ #.;.$.W l j @.8.8.8.8.8.8.8.",
"8.8.8.8.8.8.8.8.' H ! ! H N x 7 6 5 5 6 e =.7.8.8.8.8.8.m # @ = 3 b } 8.8.8.8.8.K 4 4 l W $.<.%._ ^ @.<.:.! m / 8.8.8.8.8.8.8.8.",
"8.8.8.8.8.8.8.8.8.$.( Q H N c 7 6 5 5 6 6 i o.&.8.8.8.8.8.m # = k } 8.8.8.8.8.W 3 2 3 l H $.<.%.O.^ @.<.:.! O.8.8.8.8.8.8.8.8.8.",
"8.8.8.8.8.8.8.8.8.8.<.! J N x 6 5 5 5 6 5 1 9 g } 8.8.8.8.8.N b } 8.8.8.8.8.K 5 2 2 3 7 N ` <.;.O./ _ ;.%.+.8.8.8.8.8.8.8.8.8.8.",
"8.8.8.8.8.8.8.8.8.8.8.%.Q N x 7 6 5 5 6 6 5 , 8 g } 8.8.8.8.8.8.8.8.8.8.8.~ 6 3 = = 3 6 N ) <.:.@./ _ @.*.8.8.8.8.8.8.8.8.8.8.8.",
"8.8.8.8.8.8.8.8.8.8.8.8.$.H x 7 6 5 5 6 6 5 3 - % g } 8.8.8.8.8.8.8.8.8.~ l 4 3 = = 3 5 v ~ :.:.#.) E +.8.8.8.8.8.8.8.8.8.8.8.8.",
"8.8.8.8.8.8.8.8.8.8.8.8.8._ v 6 5 5 5 5 7 5 5 3 = $ g } 8.8.8.8.8.8.8.~ v 6 4 3 2 = 2 5 c ! ;.<.#.^ X.8.8.8.8.8.8.8.8.8.8.8.8.8.",
"8.8.8.8.8.8.8.8.8.8.8.8.8.8.) l 5 5 6 6 5 6 3 3 = O $ g } 8.8.8.8.8.~ m x 6 4 2 = = = 4 x W %.<.@.*.8.8.8.8.8.8.8.8.8.8.8.8.8.8.",
"8.8.8.8.8.8.8.8.8.8.8.8.8.8.8.! 7 5 5 7 6 6 3 3 : # o $ g } 8.8.8.P x c l 6 5 3 = = 2 3 l W $.-.=.8.8.8.8.8.8.8.8.8.8.8.8.8.8.8.",
"8.8.8.8.8.8.8.8.8.8.8.8.8.8.8.8.Q 5 5 5 5 5 5 3 # # + + $ g o.5.K 6 l c x 6 3 3 = = 2 3 7 H _ ,.8.8.8.8.8.8.8.8.8.8.8.8.8.8.8.8.",
"8.8.8.8.8.8.8.8.8.8.8.8.8.8.8.8.8.! 7 5 6 5 3 3 = # @ + o $ a M 5 5 7 c x 6 5 2 2 = = 3 7 B *.8.8.8.8.8.8.8.8.8.8.8.8.8.8.8.8.8.",
"8.8.8.8.8.8.8.8.8.8.8.8.8.8.8.8.8.8.( 7 5 5 5 3 : # @ + @ o * : 3 5 l x x 6 5 3 = = = 3 z +.8.8.8.8.8.8.8.8.8.8.8.8.8.8.8.8.8.8.",
"8.8.8.8.8.8.8.8.8.8.8.8.8.8.8.8.8.8.8.~ 7 6 5 > > # # # + @ # = > 5 l v x 6 5 3 > = = j ..8.8.8.8.8.8.8.8.8.8.8.8.8.8.8.8.8.8.8.",
"8.8.8.8.8.8.8.8.8.8.8.8.8.8.8.8.8.8.8.8.P 6 5 3 : = # + # + # = > 5 7 m x 6 5 3 > = 6 O.8.8.8.8.8.8.8.8.8.8.8.8.8.8.8.8.8.8.8.8.",
"8.8.8.8.8.8.8.8.8.8.8.8.8.8.8.8.8.8.8.8.8.! 6 3 : = # # O O # : > 6 6 x x j 5 , = < ..8.8.8.8.8.8.8.8.8.8.8.8.8.8.8.8.8.8.8.8.8.",
"8.8.8.8.8.8.8.8.8.8.8.8.8.8.8.8.8.8.8.8.8.8.P , : = @ # O # # # > 5 l x x 7 5 > 6 ..8.8.8.8.8.8.8.8.8.8.8.8.8.8.8.8.8.8.8.8.8.8.",
"8.8.8.8.8.8.8.8.8.8.8.8.8.8.8.8.8.8.8.8.8.8.8.H > = # # @ # # = > , 7 x x 6 5 j ..8.8.8.8.8.8.8.8.8.8.8.8.8.8.8.8.8.8.8.8.8.8.8.",
"8.8.8.8.8.8.8.8.8.8.8.8.8.8.8.8.8.8.8.8.8.8.8.8.H : # # # # # = : 5 7 x l 6 j ..8.8.8.8.8.8.8.8.8.8.8.8.8.8.8.8.8.8.8.8.8.8.8.8.",
"8.8.8.8.8.8.8.8.8.8.8.8.8.8.8.8.8.8.8.8.8.8.8.8.8.v = @ O # # = : 4 6 x l k ..8.8.8.8.8.8.8.8.8.8.8.8.8.8.8.8.8.8.8.8.8.8.8.8.8.",
"8.8.8.8.8.8.8.8.8.8.8.8.8.8.8.8.8.8.8.8.8.8.8.8.8.8.m # @ # # = > , 6 l m ..8.8.8.8.8.8.8.8.8.8.8.8.8.8.8.8.8.8.8.8.8.8.8.8.8.8.",
"8.8.8.8.8.8.8.8.8.8.8.8.8.8.8.8.8.8.8.8.8.8.8.8.8.8.8.c # # # = > 4 6 z ..8.8.8.8.8.8.8.8.8.8.8.8.8.8.8.8.8.8.8.8.8.8.8.8.8.8.8.",
"8.8.8.8.8.8.8.8.8.8.8.8.8.8.8.8.8.8.8.8.8.8.8.8.8.8.8.3.c # = = > 3 z ..8.8.8.8.8.8.8.8.8.8.8.8.8.8.8.8.8.8.8.8.8.8.8.8.8.8.8.8.",
"8.8.8.8.8.8.8.8.8.8.8.8.8.8.8.8.8.8.8.8.8.8.8.8.8.8.8.8.8.c = = : 6 ..8.8.8.8.8.8.8.8.8.8.8.8.8.8.8.8.8.8.8.8.8.8.8.8.8.8.8.8.8.",
"8.8.8.8.8.8.8.8.8.8.8.8.8.8.8.8.8.8.8.8.8.8.8.8.8.8.8.8.8.8.v : 1 { 8.8.8.8.8.8.8.8.8.8.8.8.8.8.8.8.8.8.8.8.8.8.8.8.8.8.8.8.8.8.",
"8.8.8.8.8.8.8.8.8.8.8.8.8.8.8.8.8.8.8.8.8.8.8.8.8.8.8.8.8.8.8.B E 8.8.8.8.8.8.8.8.8.8.8.8.8.8.8.8.8.8.8.8.8.8.8.8.8.8.8.8.8.8.8.",
"8.8.8.8.8.8.8.8.8.8.8.8.8.8.8.8.8.8.8.8.8.8.8.8.8.8.8.8.8.8.8.8.8.8.8.8.8.8.8.8.8.8.8.8.8.8.8.8.8.8.8.8.8.8.8.8.8.8.8.8.8.8.8.8.",
"8.8.8.8.8.8.8.8.8.8.8.8.8.8.8.8.8.8.8.8.8.8.8.8.8.8.8.8.8.8.8.8.8.8.8.8.8.8.8.8.8.8.8.8.8.8.8.8.8.8.8.8.8.8.8.8.8.8.8.8.8.8.8.8.",
"8.8.8.8.8.8.8.8.8.8.8.8.8.8.8.8.8.8.8.8.8.8.8.8.8.8.8.8.8.8.8.8.8.8.8.8.8.8.8.8.8.8.8.8.8.8.8.8.8.8.8.8.8.8.8.8.8.8.8.8.8.8.8.8."
};
