/* XPM */
static char *energi32[] = {
/* columns rows colors chars-per-pixel */
"32 32 74 1 ",
"  c #4FD993",
". c #52D995",
"X c #56DB98",
"o c #5BDC9B",
"O c #63D496",
"+ c #60D79A",
"@ c #6BD79C",
"# c #62DE9F",
"$ c #65DEA0",
"% c #6BDEA3",
"& c #77DAA3",
"* c #7EDDA4",
"= c #7DDDAA",
"- c #6DE1A5",
"; c #70E1A7",
": c #75E3AB",
"> c #7BE4AD",
", c #7FE6B1",
"< c #81DEA7",
"1 c #83DFA9",
"2 c #8DDBB0",
"3 c #92DDB3",
"4 c #9DDFB9",
"5 c #A2DBAF",
"6 c #A4DCB1",
"7 c #83E3AF",
"8 c #89E0AC",
"9 c #82E6B2",
"0 c #8CE5B5",
"q c #87E8B5",
"w c #89E8B7",
"e c #8DEAB9",
"r c #92E3B2",
"t c #92E6B8",
"y c #95EBBD",
"u c #99EABE",
"i c #B1E3BD",
"p c #9AEDC1",
"a c #ABE1C3",
"s c #A2ECC4",
"d c #AAEEC9",
"f c #B1E5C6",
"g c #B8E5C3",
"h c #B3EAC4",
"j c #B1E3C8",
"k c #B9E3C9",
"l c #B1EFCE",
"z c #BAEDCB",
"x c #A2F0C6",
"c c #A7F1C9",
"v c #AAF1CB",
"b c #B1F0CD",
"n c #BBEED2",
"m c #B6F2D1",
"M c #BBF1D4",
"N c #BFF7D8",
"B c #C0E7CF",
"V c #C4EACA",
"C c #CBEFCE",
"Z c #CAECD4",
"A c #C1F2D6",
"S c #C8F2D4",
"D c #C6F5DA",
"F c #C9F5DB",
"G c #C3F8DA",
"H c #CBF9DE",
"J c #D4F1D7",
"K c #D3F3DB",
"L c #CEFAE0",
"P c #D3F7E3",
"I c #DFF4E0",
"U c #D7F8E3",
"Y c #DBFAE6",
"T c None",
/* pixels */
"TTTTTTTTTTTTTTTTTTTTTTTTTTTTTTTT",
"TTTTTTTTTTTTTTTTTTTTTTTTTTTTTTTT",
"TTTTTTTTTTTTTTT02TTTTTTTTTTTTTTT",
"TTTTTTTTTTTTTT0oo3TTTTTTTTTTTTTT",
"TTTTTTTTTTTTTtX.X@uTTTTTTTTTTTTT",
"TTTTTTTTTTTTuo.  -,fTTTTTTTTTTTT",
"TTTTTTTTTTTs-.. Xo>sZTTTTTTTTTTT",
"TTTTTTTTTTc:#X .X-:xFZTTTTTTTTTT",
"TTTTTTTTTc,;#. Xo-:yGDnTTTTTTTTT",
"TTTTTTTTv,>;#X *hq>emPnkTTTTTTTT",
"TTTTTTTm,::;oX*VTb,qcLAzBTTTTTTT",
"TTTTTTMq;:>-#<VTA9>9pHFzZTTTTTTT",
"TTTTTFp,:>>;8VTM::,,eNFSTTTTTTTT",
"TTTTFvy9::>rVTb--,9:9bJTTFtaTTTT",
"TTTbycp,:>uJTM#o-,q;0STTUGw%fTTT",
"TTd>ecy9>0CTm#.o-999zTTKAHp$+aTT",
"TTw:ecp,8CTT,..o;qwzTTYFMHc- =TT",
"TTTwecp,7iTTM$.o;wVTTbGHMHv;:TTT",
"TTTTxcpq:=gTTM$o>zTTx9mHMHmyTTTT",
"TTTTTmp9:>9iTTM>hTTs->bHMFFTTTTT",
"TTTTTTc9:::&6TTTTTd;$;xHAATTTTTT",
"TTTTTTPy:>:-@5TTTbq-#-pHFTTTTTTT",
"TTTTTTTFw::;o+6Isw9-#-eFTTTTTTTT",
"TTTTTTTTFw:-#.+1:9,--#uTTTTTTTTT",
"TTTTTTTTTL0%$XXo;99;#9TTTTTTTTTT",
"TTTTTTTTTTL,$oXo;99;9TTTTTTTTTTT",
"TTTTTTTTTTTA&oX#-970TTTTTTTTTTTT",
"TTTTTTTTTTTTm-oo%9uTTTTTTTTTTTTT",
"TTTTTTTTTTTTTm%o%tTTTTTTTTTTTTTT",
"TTTTTTTTTTTTTTl:9TTTTTTTTTTTTTTT",
"TTTTTTTTTTTTTTTTTTTTTTTTTTTTTTTT",
"TTTTTTTTTTTTTTTTTTTTTTTTTTTTTTTT"
};
